<svg width="160" height="160" viewBox="0 0 160 160" xmlns="http://www.w3.org/2000/svg">
  <defs>
    <linearGradient id="adminAvatarBg" x1="0" y1="0" x2="1" y2="1">
      <stop offset="0%" stop-color="#4f46e5"/>
      <stop offset="100%" stop-color="#06b6d4"/>
    </linearGradient>
  </defs>

  <!-- Borde exterior -->
  <circle cx="80" cy="80" r="78" fill="#020617"/>
  <!-- Círculo principal con degradado admin -->
  <circle cx="80" cy="80" r="60" fill="url(#adminAvatarBg)" opacity="0.98"/>

  <!-- Cabeza -->
  <circle cx="80" cy="60" r="22" fill="#e5e7eb"/>

  <!-- Hombros / torso -->
  <path d="M44 112C50 92 64 80 80 80C96 80 110 92 116 112C117 116 114 120 109 120H51C46 120 43 116 44 112Z"
        fill="#e5e7eb"/>

  <!-- Corbata -->
  <path d="M80 80L74 96L80 104L86 96L80 80Z" fill="#1d4ed8"/>

  <!-- Escudo de administrador (abajo a la derecha) -->
  <path d="M112 88L124 92V104C124 113 118 120 112 123C106 120 100 113 100 104V92L112 88Z"
        fill="#0f172a" opacity="0.95"/>
  <path d="M112 96L114.4 101.2L120 101.8L115.8 105.6L117 111L112 108.3L107 111L108.2 105.6L104 101.8L109.6 101.2L112 96Z"
        fill="#facc15"/>

  <!-- Pequeño engranaje (arriba a la izquierda) -->
  <g transform="translate(46 40) scale(0.55)">
    <circle cx="0" cy="0" r="8" fill="#0f172a"/>
    <circle cx="0" cy="0" r="4" fill="#e5e7eb"/>
    <path d="M0 -12 L2 -8 L-2 -8 Z
             M12 0 L8 2 L8 -2 Z
             M0 12 L2 8 L-2 8 Z
             M-12 0 L-8 2 L-8 -2 Z"
          fill="#e5e7eb"/>
  </g>
</svg>
